# xmcd CD database file
#
# Track frame offsets:
#	150
#	25078
#	40533
#	61963
#	77205
#	89753
#	106130
#	128385
#	153743
#	177378
#	217288
#
# Disc length: 3079 seconds
#
# Revision: 0
# Processed by: cddbd v1.5.1PL0 Copyright (c) Steve Scherf et al.
# Submitted via: CDex 1.51
#
DISCID=900c050b
DTITLE=LM Pagano - Azalea
DYEAR=2001
DGENRE=Jazz
TTITLE0=Azalea
TTITLE1=It's Love
TTITLE2=When In Rome
TTITLE3=This Can't Be Love
TTITLE4=Love Came On Stealthy Fingers
TTITLE5=Don't Explain
TTITLE6=Until I Met You (Corner Pocket)
TTITLE7=Touch Her Soft Lips And Part
TTITLE8=Walkin' My Baby Back Home
TTITLE9=Down With Love
TTITLE10=Imagination
EXTD=YEAR: 2001
EXTT0=
EXTT1=
EXTT2=
EXTT3=
EXTT4=
EXTT5=
EXTT6=
EXTT7=
EXTT8=
EXTT9=
EXTT10=
PLAYORDER=
